<svg width="512" height="512" viewBox="0 0 512 512" fill="none" xmlns="http://www.w3.org/2000/svg">
<g clip-path="url(#clip0_252_579)">
<path d="M0 256C0 114.615 114.615 0 256 0C397.385 0 512 114.615 512 256C512 397.385 397.385 512 256 512C114.615 512 0 397.385 0 256Z" fill="#02080D"/>
<path d="M64.54 349L130.844 163.912H170.268L236.444 349H199.196L184.092 306.12H117.532L102.044 349H64.54ZM125.852 273.48H175.132L150.684 200.008L125.852 273.48Z" fill="#FBFDFF"/>
<path d="M240.236 349V163.912H294.508L336.876 295.88L379.628 163.912H433.772V349H396.012V207.432L351.468 349H322.156L277.868 208.072V349H240.236Z" fill="#CBD0D0"/>
</g>
<defs>
<clipPath id="clip0_252_579">
<rect width="512" height="512" fill="white"/>
</clipPath>
</defs>
</svg>
